<svg width="1001" height="179" viewBox="0 0 1001 179" fill="none" xmlns="http://www.w3.org/2000/svg">
<g filter="url(#filter0_d_1_25200)">
<path d="M935.255 165.03C926.088 165.03 917.444 163.393 909.325 160.119C901.337 156.714 894.396 151.934 888.503 145.779C882.741 139.624 878.419 132.356 875.538 123.975L900.485 112.778C904.152 120.766 909.194 127.052 915.611 131.636C922.159 136.219 929.362 138.511 937.219 138.511C941.41 138.511 945.011 137.856 948.023 136.547C951.035 135.237 953.392 133.469 955.095 131.243C956.797 128.886 957.648 126.135 957.648 122.992C957.648 119.588 956.601 116.706 954.505 114.349C952.41 111.861 949.136 109.897 944.684 108.456L916.004 99.0272C904.349 95.2294 895.574 89.8602 889.681 82.9194C883.788 75.8477 880.842 67.4009 880.842 57.5791C880.842 48.9359 882.937 41.3403 887.128 34.7924C891.449 28.2446 897.408 23.1372 905.003 19.4704C912.73 15.8036 921.57 13.9702 931.522 13.9702C940.297 13.9702 948.416 15.4762 955.881 18.4882C963.345 21.5002 969.762 25.7564 975.131 31.2566C980.631 36.7568 984.757 43.3702 987.507 51.0967L962.756 62.2936C960.006 55.4838 955.881 50.18 950.38 46.3822C944.88 42.4535 938.594 40.4891 931.522 40.4891C927.463 40.4891 923.861 41.1439 920.718 42.4535C917.575 43.763 915.153 45.6619 913.45 48.1501C911.748 50.5074 910.897 53.2575 910.897 56.4005C910.897 59.8054 912.01 62.8174 914.236 65.4365C916.462 67.9247 919.802 69.8891 924.254 71.3296L952.345 80.3657C964.131 84.1635 972.905 89.4673 978.667 96.2771C984.56 103.087 987.507 111.403 987.507 121.225C987.507 129.737 985.28 137.332 980.828 144.011C976.375 150.559 970.22 155.732 962.363 159.53C954.636 163.196 945.6 165.03 935.255 165.03Z" fill="#D4B777"/>
<path d="M793.898 162.673V98.8307L745.182 16.3274H779.951L815.31 78.4013H802.934L838.097 16.3274H872.866L824.346 98.6343V162.673H793.898Z" fill="#D4B777"/>
<path d="M626.906 162.673L676.408 16.3274H716.874L766.376 162.673H733.178L723.356 132.814H669.729L659.907 162.673H626.906ZM678.176 106.295H714.91L692.516 37.1497H700.766L678.176 106.295Z" fill="#D4B777"/>
<path d="M478.166 162.673L439.861 16.3274H472.863L501.739 138.904H492.899L523.347 16.3274H554.777L585.224 138.904H576.385L605.261 16.3274H638.262L599.957 162.673H564.598L533.954 44.8107H544.169L513.525 162.673H478.166Z" fill="#D4B777"/>
<path d="M357.051 162.673V16.3274H387.499V136.154H449.377V162.673H357.051Z" fill="#D4B777"/>
<path d="M300.652 162.673V16.3274H331.1V162.673H300.652Z" fill="#D4B777"/>
<path d="M145.974 162.673L195.476 16.3274H235.942L285.444 162.673H252.246L242.424 132.814H188.797L178.975 162.673H145.974ZM197.244 106.295H233.978L211.584 37.1497H219.834L197.244 106.295Z" fill="#D4B777"/>
<path d="M13.9702 162.673V16.3274H69.9546C80.0384 16.3274 88.9435 18.0953 96.67 21.6312C104.527 25.167 110.682 30.4054 115.135 37.3461C119.588 44.2869 121.814 52.8646 121.814 63.0793C121.814 73.0321 119.522 81.5443 114.939 88.6161C110.355 95.5568 104.2 100.795 96.4736 104.331L129.868 162.673H95.6878L59.5435 98.045L79.1872 109.635H44.4179V162.673H13.9702ZM44.4179 83.1158H70.1511C74.4727 83.1158 78.205 82.2646 81.348 80.5622C84.4909 78.8597 86.9137 76.5025 88.6161 73.4904C90.4495 70.4784 91.3662 67.008 91.3662 63.0793C91.3662 59.0196 90.4495 55.4837 88.6161 52.4717C86.9137 49.4597 84.4909 47.1025 81.348 45.4C78.205 43.6976 74.4727 42.8463 70.1511 42.8463H44.4179V83.1158Z" fill="#D4B777"/>
<path fill-rule="evenodd" clip-rule="evenodd" d="M905.596 169.366C905.536 169.341 905.476 169.316 905.415 169.291C896.211 165.368 888.144 159.822 881.301 152.674L881.252 152.622L881.224 152.593C874.452 145.36 869.423 136.857 866.109 127.216C864.433 122.34 866.751 116.99 871.455 114.879L896.403 103.682C897.371 103.247 898.372 102.98 899.374 102.867C892.539 99.2708 886.702 94.815 882.081 89.3724L882.022 89.3021C874.531 80.3133 870.871 69.5648 870.871 57.5791C870.871 47.2511 873.4 37.7462 878.73 29.418C878.744 29.3963 878.758 29.3746 878.772 29.353L878.806 29.3004C884.192 21.1396 891.58 14.8793 900.669 10.4917L900.729 10.4631C909.993 6.0665 920.332 4 931.522 4C941.459 4 950.858 5.71045 959.611 9.24237C968.275 12.7384 975.853 17.7355 982.223 24.2491C988.805 30.8439 993.688 38.7297 996.899 47.7534C998.639 52.6395 996.341 58.0429 991.616 60.1805L966.865 71.3774C964.391 72.4965 961.568 72.5583 959.047 71.5485C956.527 70.5387 954.528 68.5446 953.511 66.027C951.416 60.8397 948.453 57.1676 944.715 54.5866C944.671 54.5565 944.628 54.526 944.585 54.4952C940.857 51.8324 936.618 50.4592 931.522 50.4592C928.53 50.4592 926.271 50.9408 924.553 51.6567C922.952 52.3238 922.156 53.0823 921.678 53.7801C921.631 53.8498 921.582 53.919 921.533 53.9875C921.158 54.5061 920.866 55.1743 920.866 56.4004C920.866 57.3726 921.101 58.0828 921.746 58.8757C922.457 59.6274 924.036 60.7795 927.317 61.8417C927.319 61.8423 927.321 61.8429 927.323 61.8436L955.397 70.8745L955.402 70.876C968.281 75.0258 978.899 81.1363 986.244 89.7965C993.826 98.5796 997.477 109.26 997.477 121.225C997.477 131.58 994.735 141.124 989.123 149.542L989.072 149.617C983.538 157.757 975.969 164.027 966.701 168.506L966.637 168.537C957.324 172.957 946.774 175 935.254 175C924.871 175 914.956 173.14 905.596 169.366ZM978.667 96.2771C972.905 89.4673 964.131 84.1635 952.344 80.3657L924.254 71.3296C919.801 69.8891 916.462 67.9247 914.236 65.4365C912.009 62.8174 910.896 59.8053 910.896 56.4004C910.896 53.2575 911.747 50.5073 913.45 48.1501C915.152 45.6619 917.575 43.763 920.718 42.4534C923.861 41.1439 927.462 40.4891 931.522 40.4891C938.594 40.4891 944.88 42.4534 950.38 46.3822C954.996 49.5695 958.644 53.8177 961.323 59.1266C961.836 60.1433 962.313 61.199 962.756 62.2935L987.507 51.0967C986.416 48.0317 985.108 45.142 983.585 42.4273C983.51 42.2944 983.435 42.1619 983.359 42.0299C981.085 38.0593 978.343 34.4682 975.131 31.2566C969.762 25.7563 963.345 21.5002 955.88 18.4882C948.416 15.4762 940.296 13.9701 931.522 13.9701C921.569 13.9701 912.73 15.8036 905.003 19.4704C897.408 23.1372 891.449 28.2445 887.127 34.7924C882.937 41.3403 880.841 48.9359 880.841 57.5791C880.841 67.4009 883.788 75.8477 889.681 82.9194C895.574 89.8601 904.348 95.2294 916.004 99.0272L944.683 108.456C949.136 109.897 952.41 111.861 954.505 114.349C956.601 116.706 957.648 119.588 957.648 122.992C957.648 126.135 956.797 128.886 955.094 131.243C953.392 133.469 951.035 135.237 948.023 136.547C945.011 137.856 941.409 138.511 937.219 138.511C929.361 138.511 922.159 136.219 915.611 131.636C909.194 127.052 904.152 120.766 900.485 112.778L875.538 123.975C878.419 132.356 882.74 139.624 888.503 145.779C894.396 151.934 901.336 156.714 909.325 160.119C917.444 163.393 926.087 165.03 935.254 165.03C945.6 165.03 954.636 163.196 962.363 159.53C970.22 155.732 976.375 150.559 980.828 144.011C985.28 137.332 987.507 129.737 987.507 121.225C987.507 111.403 984.56 103.087 978.667 96.2771ZM921.367 123.495C926.258 126.908 931.46 128.541 937.219 128.541C940.405 128.541 942.585 128.039 944.047 127.403C945.677 126.695 946.566 125.938 947.087 125.298C947.425 124.794 947.678 124.135 947.678 122.992C947.678 121.818 947.392 121.354 947.053 120.973C946.994 120.907 946.936 120.839 946.879 120.771C946.403 120.206 945.029 119.047 941.614 117.942L941.569 117.928L912.915 108.507C912.91 108.505 912.905 108.503 912.9 108.502C911.44 108.026 910.009 107.524 908.609 106.995C908.965 107.496 909.28 108.039 909.546 108.619C912.565 115.194 916.54 120.036 921.367 123.495Z" fill="#AD9255"/>
<path fill-rule="evenodd" clip-rule="evenodd" d="M793.899 172.643C788.392 172.643 783.928 168.179 783.928 162.673V101.555L736.597 21.3967C734.777 18.3145 734.749 14.4932 736.524 11.3846C738.298 8.27602 741.603 6.35722 745.182 6.35722H779.952C783.534 6.35722 786.841 8.27951 788.615 11.3926L809.081 47.3221L829.422 11.4133C831.192 8.2886 834.505 6.35722 838.097 6.35722H872.866C876.444 6.35722 879.748 8.27464 881.523 11.3815C883.298 14.4883 883.272 18.3081 881.455 21.3905L834.316 101.354V162.673C834.316 168.179 829.853 172.643 824.346 172.643H793.899ZM824.346 98.6343L872.866 16.3274H838.097L809.105 67.5081L779.952 16.3274H745.182L793.899 98.8307V162.673H824.346V98.6343Z" fill="#AD9255"/>
<path fill-rule="evenodd" clip-rule="evenodd" d="M618.805 168.484C616.932 165.874 616.432 162.521 617.461 159.478L666.963 13.1327C668.333 9.08291 672.133 6.35722 676.408 6.35722H716.874C721.149 6.35722 724.948 9.08291 726.318 13.1327L775.82 159.478C776.85 162.521 776.349 165.874 774.477 168.484C772.604 171.095 769.588 172.643 766.376 172.643H733.178C728.872 172.643 725.053 169.878 723.707 165.788L716.14 142.784H676.945L669.378 165.788C668.033 169.878 664.213 172.643 659.907 172.643H626.906C623.693 172.643 620.677 171.095 618.805 168.484ZM669.729 132.814H723.356L733.178 162.673H766.376L716.874 16.3274H676.408L626.906 162.673H659.907L669.729 132.814ZM678.176 106.295H714.909L696.623 49.8314L678.176 106.295ZM696.581 82.0628L691.922 96.3252H701.2L696.581 82.0628Z" fill="#AD9255"/>
<path fill-rule="evenodd" clip-rule="evenodd" d="M478.167 172.643C473.633 172.643 469.67 169.583 468.521 165.197L430.216 18.852C429.434 15.8632 430.081 12.6806 431.969 10.235C433.857 7.78945 436.772 6.35722 439.862 6.35722H472.863C477.489 6.35722 481.507 9.5388 482.567 14.0412L497.693 78.2481L513.671 13.9239C514.775 9.47836 518.766 6.35722 523.347 6.35722H554.777C559.357 6.35722 563.349 9.47836 564.453 13.9238L580.431 78.248L595.557 14.0412C596.617 9.5388 600.635 6.35722 605.261 6.35722H638.262C641.352 6.35722 644.267 7.78945 646.155 10.235C648.042 12.6806 648.69 15.8632 647.908 18.852L609.603 165.197C608.454 169.583 604.491 172.643 599.957 172.643H564.599C560.059 172.643 556.092 169.575 554.949 165.181L539.062 104.076L523.175 165.181C522.032 169.575 518.065 172.643 513.525 172.643H478.167ZM539.062 64.4543L564.599 162.673H599.957L638.262 16.3274H605.261L580.688 120.639L554.777 16.3274H523.347L497.436 120.639L472.863 16.3274H439.862L478.167 162.673H513.525L539.062 64.4543Z" fill="#AD9255"/>
<path fill-rule="evenodd" clip-rule="evenodd" d="M357.051 172.643C351.545 172.643 347.081 168.179 347.081 162.673V16.3274C347.081 10.821 351.545 6.35722 357.051 6.35722H387.499C393.005 6.35722 397.469 10.821 397.469 16.3274V126.184H449.376C454.883 126.184 459.346 130.647 459.346 136.154V162.673C459.346 168.179 454.883 172.643 449.376 172.643H357.051ZM387.499 136.154V16.3274H357.051V162.673H449.376V136.154H387.499Z" fill="#AD9255"/>
<path fill-rule="evenodd" clip-rule="evenodd" d="M300.652 172.643C295.146 172.643 290.682 168.179 290.682 162.673V16.3274C290.682 10.821 295.146 6.35722 300.652 6.35722H331.1C336.606 6.35722 341.07 10.821 341.07 16.3274V162.673C341.07 168.179 336.606 172.643 331.1 172.643H300.652ZM300.652 162.673H331.1V16.3274H300.652V162.673Z" fill="#AD9255"/>
<path fill-rule="evenodd" clip-rule="evenodd" d="M137.873 168.484C136 165.874 135.5 162.521 136.53 159.478L186.032 13.1327C187.402 9.08291 191.201 6.35722 195.476 6.35722H235.942C240.217 6.35722 244.017 9.08291 245.387 13.1327L294.889 159.478C295.918 162.521 295.418 165.874 293.545 168.484C291.673 171.095 288.657 172.643 285.444 172.643H252.246C247.94 172.643 244.121 169.878 242.776 165.788L235.209 142.784H196.013L188.446 165.788C187.101 169.878 183.282 172.643 178.976 172.643H145.974C142.762 172.643 139.746 171.095 137.873 168.484ZM188.797 132.814H242.425L252.246 162.673H285.444L235.942 16.3274H195.476L145.974 162.673H178.976L188.797 132.814ZM197.244 106.295H233.978L215.691 49.8314L197.244 106.295ZM215.65 82.0628L210.99 96.3252H220.269L215.65 82.0628Z" fill="#AD9255"/>
<path fill-rule="evenodd" clip-rule="evenodd" d="M13.9701 172.643C8.46379 172.643 4 168.179 4 162.673V16.3274C4 10.821 8.46379 6.35722 13.9701 6.35722H69.9546C81.1946 6.35722 91.5486 8.32865 100.79 12.5522C110.314 16.8438 117.988 23.3284 123.527 31.9627C129.231 40.8548 131.784 51.412 131.784 63.0793C131.784 74.6022 129.113 85.0785 123.305 94.0387L123.258 94.1102C119.644 99.5825 115.216 104.201 110.029 107.944L138.521 157.72C140.287 160.805 140.276 164.598 138.493 167.674C136.709 170.749 133.423 172.643 129.868 172.643H95.6878C92.077 172.643 88.7485 170.691 86.986 167.539L60.1778 119.605H54.388V162.673C54.388 168.179 49.9242 172.643 44.4178 172.643H13.9701ZM44.4178 109.635H66.0252L95.6878 162.673H129.868L96.4735 104.331C99.1066 103.126 101.557 101.723 103.825 100.123C108.213 97.027 111.917 93.1914 114.939 88.616C119.522 81.5443 121.814 73.0321 121.814 63.0793C121.814 52.8646 119.588 44.2868 115.135 37.3461C110.682 30.4053 104.527 25.167 96.6699 21.6312C88.9434 18.0953 80.0383 16.3274 69.9546 16.3274H13.9701V162.673H44.4178V109.635ZM88.616 52.4717C90.4494 55.4837 91.3661 59.0196 91.3661 63.0793C91.3661 67.008 90.4494 70.4784 88.616 73.4904C86.9136 76.5024 84.4909 78.8597 81.3479 80.5621C78.2049 82.2646 74.4726 83.1158 70.151 83.1158H44.4178V42.8463H70.151C74.4726 42.8463 78.2049 43.6975 81.3479 45.4C84.4909 47.1024 86.9136 49.4597 88.616 52.4717ZM54.388 52.8165V73.1457H70.151C73.1586 73.1457 75.1899 72.5589 76.5993 71.7955C78.1527 70.954 79.1872 69.91 79.9364 68.5845C79.9893 68.491 80.0437 68.3983 80.0996 68.3065C80.8764 67.0302 81.396 65.3941 81.396 63.0793C81.396 60.5664 80.8456 58.8813 80.0996 57.6556C80.0437 57.5638 79.9893 57.4711 79.9364 57.3776C79.1872 56.0521 78.1527 55.0081 76.5993 54.1667C75.1898 53.4032 73.1586 52.8165 70.151 52.8165H54.388Z" fill="#AD9255"/>
<line x1="10.9755" y1="30.3947" x2="70.5419" y2="30.3947" stroke="#AD9255" stroke-width="3.32338"/>
<line x1="157.204" y1="122.618" x2="198.747" y2="122.618" stroke="#AD9255" stroke-width="4.98507"/>
<line x1="207.055" y1="33.7181" x2="248.597" y2="33.7181" stroke="#AD9255" stroke-width="6.64676"/>
<line x1="321.712" y1="38.7032" x2="321.712" y2="13.7778" stroke="#AD9255" stroke-width="6.64676"/>
<line x1="308.418" y1="169.977" x2="308.418" y2="145.051" stroke="#AD9255" stroke-width="6.64676"/>
<line x1="472.162" y1="49.2507" x2="463.854" y2="14.3552" stroke="#AD9255" stroke-width="4.98507"/>
<line x1="424.736" y1="150.867" x2="451.323" y2="150.867" stroke="#AD9255" stroke-width="4.98507"/>
<line x1="353.284" y1="133.42" x2="406.458" y2="133.42" stroke="#AD9255" stroke-width="6.64676"/>
<line x1="733.811" y1="123.449" x2="757.075" y2="123.449" stroke="#AD9255" stroke-width="3.32338"/>
<line x1="934.876" y1="150.036" x2="984.726" y2="150.036" stroke="#AD9255" stroke-width="6.64676"/>
<line x1="888.348" y1="30.3947" x2="926.567" y2="30.3947" stroke="#AD9255" stroke-width="6.64676"/>
<line x1="497.761" y1="107.728" x2="512.716" y2="170.872" stroke="#AD9255" stroke-width="6.64676"/>
<line x1="580.846" y1="107.728" x2="595.801" y2="170.872" stroke="#AD9255" stroke-width="6.64676"/>
<line x1="580.846" y1="107.728" x2="595.801" y2="170.872" stroke="#AD9255" stroke-width="6.64676"/>
<line x1="644.08" y1="103.509" x2="753.751" y2="103.509" stroke="#AD9255" stroke-width="6.64676"/>
<line x1="630.786" y1="136.743" x2="760.398" y2="136.743" stroke="#AD9255" stroke-width="6.64676"/>
<line x1="806.575" y1="55.4956" x2="829.838" y2="102.023" stroke="#AD9255" stroke-width="6.64676"/>
<line x1="756.559" y1="11.9996" x2="788.131" y2="61.8503" stroke="#AD9255" stroke-width="6.64676"/>
<line x1="147.234" y1="136.743" x2="276.846" y2="136.743" stroke="#AD9255" stroke-width="6.64676"/>
<line x1="158.866" y1="105.171" x2="275.184" y2="105.171" stroke="#AD9255" stroke-width="6.64676"/>
<line x1="10.9755" y1="108.494" x2="105.692" y2="108.494" stroke="#AD9255" stroke-width="6.64676"/>
<line x1="604.241" y1="49.9668" x2="612.549" y2="13.4096" stroke="#AD9255" stroke-width="3.32338"/>
</g>
<defs>
<filter id="filter0_d_1_25200" x="0.507984" y="0.507984" width="1000.46" height="177.984" filterUnits="userSpaceOnUse" color-interpolation-filters="sRGB">
<feFlood flood-opacity="0" result="BackgroundImageFix"/>
<feColorMatrix in="SourceAlpha" type="matrix" values="0 0 0 0 0 0 0 0 0 0 0 0 0 0 0 0 0 0 127 0" result="hardAlpha"/>
<feOffset/>
<feGaussianBlur stdDeviation="1.74601"/>
<feComposite in2="hardAlpha" operator="out"/>
<feColorMatrix type="matrix" values="0 0 0 0 0 0 0 0 0 0 0 0 0 0 0 0 0 0 0.25 0"/>
<feBlend mode="normal" in2="BackgroundImageFix" result="effect1_dropShadow_1_25200"/>
<feBlend mode="normal" in="SourceGraphic" in2="effect1_dropShadow_1_25200" result="shape"/>
</filter>
</defs>
</svg>
